<svg xmlns="http://www.w3.org/2000/svg" width="20" height="18.571" viewBox="0 0 20 18.571">
  <g id="view-list" transform="translate(-12 -18)">
    <g id="Group_30506" data-name="Group 30506" transform="translate(12 18)">
      <path id="Path_35697" data-name="Path 35697" d="M12,18.714A.714.714,0,0,1,12.714,18H31.286a.714.714,0,1,1,0,1.429H12.714A.714.714,0,0,1,12,18.714Zm0,17.143a.714.714,0,0,1,.714-.714H31.286a.714.714,0,1,1,0,1.429H12.714A.714.714,0,0,1,12,35.857Z" transform="translate(-12 -18)" fill="#303030"/>
      <path id="Path_35614" data-name="Path 35614" d="M8.988,3.415,6.509,7.061,5.78,6.332a1.41,1.41,0,0,0-2.042,0,1.41,1.41,0,0,0,0,2.042l1.9,2.042a1.324,1.324,0,0,0,1.021.438H6.8a1.228,1.228,0,0,0,1.021-.583l3.5-5.251a1.543,1.543,0,0,0-.292-2.042A1.435,1.435,0,0,0,8.988,3.415Z" transform="translate(2.562 2.493)" fill="#303030"/>
    </g>
  </g>
</svg>
