<svg xmlns="http://www.w3.org/2000/svg" xmlns:xlink="http://www.w3.org/1999/xlink" width="104.543" height="28" viewBox="0 0 104.543 28">
  <defs>
    <linearGradient id="linear-gradient" x1="38.342" y1="2.33" x2="2.176" y2="0.57" gradientUnits="objectBoundingBox">
      <stop offset="0" stop-color="#009dde"/>
      <stop offset="0.129" stop-color="#1a92d1"/>
      <stop offset="0.403" stop-color="#5c79b1"/>
      <stop offset="0.468" stop-color="#6d73aa"/>
      <stop offset="1" stop-color="#be1c54"/>
    </linearGradient>
    <linearGradient id="linear-gradient-2" x1="61.096" y1="2.868" x2="0.429" y2="0.497" xlink:href="#linear-gradient"/>
    <linearGradient id="linear-gradient-3" x1="141.8" y1="2.309" x2="-4.911" y2="0.432" xlink:href="#linear-gradient"/>
    <linearGradient id="linear-gradient-4" x1="32.157" y1="2.671" x2="-2.24" y2="0.3" xlink:href="#linear-gradient"/>
    <linearGradient id="linear-gradient-5" x1="31.677" y1="2.474" x2="-4.235" y2="0.201" xlink:href="#linear-gradient"/>
    <linearGradient id="linear-gradient-6" x1="31.613" y1="2.42" x2="-6.487" y2="0.087" xlink:href="#linear-gradient"/>
    <linearGradient id="linear-gradient-7" x1="27.251" y1="1.808" x2="-9.295" y2="0.03" xlink:href="#linear-gradient"/>
    <linearGradient id="linear-gradient-8" x1="24.432" y1="1.709" x2="-10.825" y2="-0.073" xlink:href="#linear-gradient"/>
    <linearGradient id="linear-gradient-9" x1="89.203" y1="1.636" x2="-57.507" y2="-0.24" xlink:href="#linear-gradient"/>
    <linearGradient id="linear-gradient-10" x1="21.942" y1="1.828" x2="-16.158" y2="-0.505" xlink:href="#linear-gradient"/>
    <linearGradient id="linear-gradient-11" x1="20.005" y1="1.709" x2="-18.095" y2="-0.624" xlink:href="#linear-gradient"/>
    <linearGradient id="linear-gradient-12" x1="17.048" y1="1.547" x2="-18.891" y2="-0.727" xlink:href="#linear-gradient"/>
    <linearGradient id="linear-gradient-13" x1="14.538" y1="1.457" x2="-19.859" y2="-0.915" xlink:href="#linear-gradient"/>
    <linearGradient id="linear-gradient-14" x1="13.459" y1="1.315" x2="-22.926" y2="-0.973" xlink:href="#linear-gradient"/>
    <linearGradient id="linear-gradient-15" x1="21.283" y1="1.097" x2="-45.721" y2="-0.828" xlink:href="#linear-gradient"/>
    <linearGradient id="linear-gradient-16" x1="40.782" y1="1.017" x2="-105.927" y2="-0.859" xlink:href="#linear-gradient"/>
    <linearGradient id="linear-gradient-17" x1="8.841" y1="1.028" x2="-27.098" y2="-1.246" xlink:href="#linear-gradient"/>
    <linearGradient id="linear-gradient-18" x1="7.386" y1="0.936" x2="-30.714" y2="-1.397" xlink:href="#linear-gradient"/>
    <clipPath id="clip-path">
      <path id="Path_35664" data-name="Path 35664" d="M174.36,86.454a17.508,17.508,0,0,1,2.915.271,3.689,3.689,0,0,1,2.788,4.738c-.991,4.425-8.576,4.163-10.427.217a4.825,4.825,0,0,1-.394-2.058h3.005a2.562,2.562,0,0,0,.073.556c.41,1.793,3.041,2.183,4.316,1.581a1.432,1.432,0,0,0,.865-1.38c-.176-1.435-2.156-1.53-3.193-1.6-1.564-.1-3.091,0-4.226-1.4a3.78,3.78,0,0,1-.33-4.079,3.893,3.893,0,0,1,1.17-1.333,5.243,5.243,0,0,1,1.663-.777,7.361,7.361,0,0,1,1.97-.259,10.912,10.912,0,0,1,1.453.13,5.4,5.4,0,0,1,1.786.6,4.018,4.018,0,0,1,2.094,3.837c-.909,0-1.817,0-2.725,0a.263.263,0,0,1-.181-.044.317.317,0,0,1-.075-.176,2.134,2.134,0,0,0-1.191-1.433,3.082,3.082,0,0,0-1.842-.188,2.274,2.274,0,0,0-1.26.595A1.3,1.3,0,0,0,172.3,85.6c.259.621,1.014.784,1.658.831C174.091,86.439,174.226,86.447,174.36,86.454Z" transform="translate(-169.242 -80.936)" fill="#303030"/>
    </clipPath>
  </defs>
  <g id="Group_30656" data-name="Group 30656" transform="translate(73.397 3.201)">
    <path id="Path_35761" data-name="Path 35761" d="M125.258,94.611h-3.13V92.77l.579-.763a4.244,4.244,0,0,1-1.131,1.683,4.961,4.961,0,0,1-1.341.841,5.429,5.429,0,0,1-1.578.342,6.005,6.005,0,0,1-2.893-.736,5.556,5.556,0,0,1-1.065-.8,5,5,0,0,1-.92-1.223,7.082,7.082,0,0,1-.658-1.762,10.191,10.191,0,0,1-.249-2.393,9.7,9.7,0,0,1,.263-2.394,7.011,7.011,0,0,1,.7-1.775,4.968,4.968,0,0,1,1-1.249,6.283,6.283,0,0,1,1.144-.816,6.951,6.951,0,0,1,3.13-.789,7.257,7.257,0,0,1,2.814.486,4.882,4.882,0,0,1,1.907,1.394,5.682,5.682,0,0,1,1.092,2.209,11.7,11.7,0,0,1,.342,2.958ZM119.1,84.039a2.777,2.777,0,0,0-1.565.395,2.711,2.711,0,0,0-.907.986,3.978,3.978,0,0,0-.421,1.276,7.646,7.646,0,0,0,0,2.525,3.976,3.976,0,0,0,.421,1.276,2.715,2.715,0,0,0,.907.986,3.3,3.3,0,0,0,3.13,0,2.828,2.828,0,0,0,.92-.986,3.8,3.8,0,0,0,.434-1.276,8.363,8.363,0,0,0,.105-1.262,10.752,10.752,0,0,0-.092-1.407,3.682,3.682,0,0,0-.394-1.262,2.259,2.259,0,0,0-.907-.908A3.319,3.319,0,0,0,119.1,84.039Z" transform="translate(-171.284 -79.979)" fill="#303030"/>
    <path id="Path_35762" data-name="Path 35762" d="M349.814,71.956V65.6h3.166V76.8a9.828,9.828,0,0,1-.266,2.421,7.117,7.117,0,0,1-.705,1.8,4.951,4.951,0,0,1-1,1.25,6.3,6.3,0,0,1-1.144.811,6.9,6.9,0,0,1-3.113.745,7.008,7.008,0,0,1-3.166-.745,6.7,6.7,0,0,1-1.157-.811,4.868,4.868,0,0,1-1.011-1.237,6.853,6.853,0,0,1-.705-1.782,9.814,9.814,0,0,1-.266-2.421A10.288,10.288,0,0,1,340.7,74.4a7.434,7.434,0,0,1,.665-1.8,5.234,5.234,0,0,1,.931-1.263,5.377,5.377,0,0,1,1.077-.825,6.107,6.107,0,0,1,2.926-.8,5.546,5.546,0,0,1,1.6.4,5.482,5.482,0,0,1,1.357.891,4.407,4.407,0,0,1,1.144,1.716Zm-3.059,8.832a2.812,2.812,0,0,0,1.583-.4,2.863,2.863,0,0,0,.932-1,3.854,3.854,0,0,0,.439-1.291,7.746,7.746,0,0,0,0-2.554,3.858,3.858,0,0,0-.439-1.291,2.861,2.861,0,0,0-.932-1,3.339,3.339,0,0,0-3.166,0,2.738,2.738,0,0,0-.918,1,4.027,4.027,0,0,0-.426,1.291,7.706,7.706,0,0,0,0,2.554,4.023,4.023,0,0,0,.426,1.291,2.739,2.739,0,0,0,.918,1A2.813,2.813,0,0,0,346.755,80.788Z" transform="translate(-337.162 -68.799)" fill="#303030"/>
    <path id="Path_35763" data-name="Path 35763" d="M409.9,86.194q.052.391.091.807t.039.885v.468h-9.111q.052.443.13.9a4.213,4.213,0,0,0,.26.9,3.26,3.26,0,0,0,.885,1.2,2.927,2.927,0,0,0,3.332,0,3.277,3.277,0,0,0,.885-1.2H409.8a6,6,0,0,1-.586,1.588,6.1,6.1,0,0,1-.833,1.171,4.746,4.746,0,0,1-.976.82,7.2,7.2,0,0,1-1.015.534A6.987,6.987,0,0,1,400.767,94a6.544,6.544,0,0,1-1.133-.794,4.767,4.767,0,0,1-.989-1.21,6.689,6.689,0,0,1-.689-1.744,10.909,10.909,0,0,1,0-4.738,6.925,6.925,0,0,1,.689-1.757,4.916,4.916,0,0,1,.989-1.236,6.209,6.209,0,0,1,1.133-.807,6.877,6.877,0,0,1,3.1-.781,7.292,7.292,0,0,1,2.681.6,6.38,6.38,0,0,1,1.054.612,5.045,5.045,0,0,1,.989.937,6.163,6.163,0,0,1,.807,1.328A6.73,6.73,0,0,1,409.9,86.194Zm-3.28,0a6.705,6.705,0,0,0-.325-.833,2.675,2.675,0,0,0-.534-.755,2.481,2.481,0,0,0-.807-.534,3.164,3.164,0,0,0-2.187,0,2.478,2.478,0,0,0-.807.534,2.9,2.9,0,0,0-.547.755,4.077,4.077,0,0,0-.312.833Z" transform="translate(-378.887 -79.979)" fill="#303030"/>
    <path id="Path_35764" data-name="Path 35764" d="M283.374,87.958a9.688,9.688,0,0,1,.263-2.394,7,7,0,0,1,.7-1.775,4.967,4.967,0,0,1,1-1.249,6.3,6.3,0,0,1,1.144-.816,6.552,6.552,0,0,1,6.233,0,6.312,6.312,0,0,1,1.144.816,4.964,4.964,0,0,1,1,1.249,7.355,7.355,0,0,1,.71,1.775,10.5,10.5,0,0,1,0,4.787,7.087,7.087,0,0,1-.71,1.762,4.808,4.808,0,0,1-1,1.223,6.636,6.636,0,0,1-1.144.8,6.963,6.963,0,0,1-6.233,0,6.627,6.627,0,0,1-1.144-.8,4.811,4.811,0,0,1-1-1.223,6.756,6.756,0,0,1-.7-1.762A9.681,9.681,0,0,1,283.374,87.958Zm6.233-3.919a2.775,2.775,0,0,0-1.565.395,2.7,2.7,0,0,0-.907.986,3.957,3.957,0,0,0-.421,1.276,7.607,7.607,0,0,0,0,2.525,3.955,3.955,0,0,0,.421,1.276,2.705,2.705,0,0,0,.907.986,3.3,3.3,0,0,0,3.13,0,2.705,2.705,0,0,0,.907-.986,3.968,3.968,0,0,0,.421-1.276,7.607,7.607,0,0,0,0-2.525,3.97,3.97,0,0,0-.421-1.276,2.7,2.7,0,0,0-.907-.986A2.777,2.777,0,0,0,289.607,84.039Z" transform="translate(-295.56 -79.979)" fill="#303030"/>
    <g id="Group_30626" data-name="Group 30626" transform="translate(-73.303 18.037)">
      <g id="Group_30456" data-name="Group 30456">
        <path id="Path_35644" data-name="Path 35644" d="M60.358,145.851v-1.917h.814v3.377a3.445,3.445,0,0,1-.069.73,2.361,2.361,0,0,1-.181.542,1.482,1.482,0,0,1-.256.377,1.67,1.67,0,0,1-.294.245,1.569,1.569,0,0,1-.8.224,1.592,1.592,0,0,1-.814-.224,1.748,1.748,0,0,1-.3-.245,1.45,1.45,0,0,1-.26-.373,2.287,2.287,0,0,1-.181-.537,3.453,3.453,0,0,1-.069-.73,3.619,3.619,0,0,1,.065-.73,2.482,2.482,0,0,1,.171-.541,1.588,1.588,0,0,1,.239-.381,1.423,1.423,0,0,1,.277-.249,1.4,1.4,0,0,1,.753-.241,1.258,1.258,0,0,1,.411.12,1.42,1.42,0,0,1,.349.269,1.362,1.362,0,0,1,.294.517Zm-.787,2.663a.642.642,0,0,0,.407-.12.822.822,0,0,0,.24-.3,1.3,1.3,0,0,0,.113-.389,2.72,2.72,0,0,0,0-.77,1.292,1.292,0,0,0-.113-.389.825.825,0,0,0-.24-.3.749.749,0,0,0-.814,0,.792.792,0,0,0-.236.3,1.354,1.354,0,0,0-.11.389,2.719,2.719,0,0,0,0,.77,1.358,1.358,0,0,0,.11.389.789.789,0,0,0,.236.3A.642.642,0,0,0,59.571,148.514Z" transform="translate(-57.949 -143.934)" fill="url(#linear-gradient)"/>
        <path id="Path_35645" data-name="Path 35645" d="M80.615,150.092a1.211,1.211,0,0,1,.15-.654,1.19,1.19,0,0,1,.329-.357,1.061,1.061,0,0,1,.479-.176h.958v.971h-.643a.4.4,0,0,0-.222.056.521.521,0,0,0-.133.12.494.494,0,0,0-.075.176v2.743h-.842Z" transform="translate(-74.47 -147.557)" fill="url(#linear-gradient-2)"/>
        <path id="Path_35646" data-name="Path 35646" d="M98.257,144.375c0-.118,0-.206,0-.265a.2.2,0,0,1,.041-.128.174.174,0,0,1,.123-.044c.057,0,.14,0,.25,0s.193,0,.25,0a.174.174,0,0,1,.123.044.2.2,0,0,1,.041.128c0,.059,0,.147,0,.265s0,.206,0,.265a.194.194,0,0,1-.041.128.174.174,0,0,1-.123.044q-.086,0-.25,0t-.25,0a.173.173,0,0,1-.123-.044.194.194,0,0,1-.041-.128Q98.257,144.552,98.257,144.375Zm.835.906v4.067h-.835v-4.067Z" transform="translate(-87.329 -143.934)" fill="url(#linear-gradient-3)"/>
        <path id="Path_35647" data-name="Path 35647" d="M113.475,152.972h-.561l-1.129-4.067h.842l.848,3.04.849-3.04h.842l-1.129,4.067Z" transform="translate(-97.189 -147.557)" fill="url(#linear-gradient-4)"/>
        <path id="Path_35648" data-name="Path 35648" d="M137.862,150.14c.009.08.017.163.024.249s.01.176.01.273v.144H135.5c.009.091.021.183.034.277a1.488,1.488,0,0,0,.069.277,1.007,1.007,0,0,0,.233.369.678.678,0,0,0,.876,0,1.015,1.015,0,0,0,.233-.369h.889a2.058,2.058,0,0,1-.154.489,1.91,1.91,0,0,1-.219.361,1.334,1.334,0,0,1-.256.253,1.809,1.809,0,0,1-.267.164,1.574,1.574,0,0,1-.664.145,1.593,1.593,0,0,1-.814-.224,1.759,1.759,0,0,1-.3-.245,1.456,1.456,0,0,1-.26-.373,2.3,2.3,0,0,1-.181-.537,3.92,3.92,0,0,1,0-1.46,2.371,2.371,0,0,1,.181-.541,1.509,1.509,0,0,1,.26-.381,1.654,1.654,0,0,1,.3-.249,1.6,1.6,0,0,1,.814-.241,1.683,1.683,0,0,1,.7.185,1.625,1.625,0,0,1,.277.188,1.438,1.438,0,0,1,.26.289,1.974,1.974,0,0,1,.212.409A2.343,2.343,0,0,1,137.862,150.14Zm-.862,0a2.288,2.288,0,0,0-.085-.257.839.839,0,0,0-.14-.233.658.658,0,0,0-.212-.164.716.716,0,0,0-.575,0,.654.654,0,0,0-.212.164.9.9,0,0,0-.144.233,1.388,1.388,0,0,0-.082.257Z" transform="translate(-113.856 -147.277)" fill="url(#linear-gradient-5)"/>
        <path id="Path_35649" data-name="Path 35649" d="M158.781,148.52l.147.008a1.139,1.139,0,0,1,.3.068,1.656,1.656,0,0,1,.363.189,1.356,1.356,0,0,1,.356.369,2.125,2.125,0,0,1,.27.606,3.278,3.278,0,0,1,.106.9v2.029h-.835v-2.029a2.47,2.47,0,0,0-.027-.361,1.137,1.137,0,0,0-.1-.337.689.689,0,0,0-.212-.252.7.7,0,0,0-.725,0,.683.683,0,0,0-.212.252,1.137,1.137,0,0,0-.1.337,2.465,2.465,0,0,0-.027.361v2.029h-.835v-2.029a3.29,3.29,0,0,1,.106-.9,2.133,2.133,0,0,1,.27-.606,1.353,1.353,0,0,1,.356-.369,1.648,1.648,0,0,1,.362-.189,1.139,1.139,0,0,1,.294-.068Z" transform="translate(-130.321 -147.277)" fill="url(#linear-gradient-6)"/>
        <path id="Path_35650" data-name="Path 35650" d="M194.275,146.084a1.355,1.355,0,0,1,.294-.517,1.41,1.41,0,0,1,.349-.269,1.258,1.258,0,0,1,.411-.12,1.4,1.4,0,0,1,.753.241,1.422,1.422,0,0,1,.277.249,1.6,1.6,0,0,1,.24.381,2.509,2.509,0,0,1,.171.541,3.617,3.617,0,0,1,.065.73,3.284,3.284,0,0,1-.072.73,2.4,2.4,0,0,1-.185.537,1.455,1.455,0,0,1-.26.373,1.759,1.759,0,0,1-.3.245,1.58,1.58,0,0,1-.808.224,1.542,1.542,0,0,1-.8-.224,1.642,1.642,0,0,1-.294-.245,1.476,1.476,0,0,1-.256-.377,2.36,2.36,0,0,1-.181-.542,3.427,3.427,0,0,1-.069-.73v-3.377h.814v1.917Zm.937,2.43a.642.642,0,0,0,.407-.12.789.789,0,0,0,.236-.3,1.368,1.368,0,0,0,.11-.389,2.721,2.721,0,0,0,0-.77,1.364,1.364,0,0,0-.11-.389.792.792,0,0,0-.236-.3.748.748,0,0,0-.814,0,.823.823,0,0,0-.24.3,1.292,1.292,0,0,0-.113.389,2.721,2.721,0,0,0,0,.77,1.3,1.3,0,0,0,.113.389.819.819,0,0,0,.24.3A.641.641,0,0,0,195.212,148.514Z" transform="translate(-156.831 -143.934)" fill="url(#linear-gradient-7)"/>
        <path id="Path_35651" data-name="Path 35651" d="M218.084,153.525a.988.988,0,0,1-.226.437,1.168,1.168,0,0,1-.308.237,1.315,1.315,0,0,1-.383.12h-1.081v-.938h.7a.433.433,0,0,0,.274-.064.282.282,0,0,0,.1-.144.419.419,0,0,0-.014-.209l-1.115-4.058h.842l.808,3.144.807-3.144h.842Z" transform="translate(-173.167 -147.557)" fill="url(#linear-gradient-8)"/>
        <path id="Path_35652" data-name="Path 35652" d="M253.075,144.375c0-.118,0-.206,0-.265a.2.2,0,0,1,.041-.128.174.174,0,0,1,.123-.044c.057,0,.14,0,.25,0s.192,0,.25,0a.175.175,0,0,1,.123.044.2.2,0,0,1,.041.128c0,.059,0,.147,0,.265s0,.206,0,.265a.2.2,0,0,1-.041.128.175.175,0,0,1-.123.044q-.086,0-.25,0t-.25,0a.174.174,0,0,1-.123-.044.2.2,0,0,1-.041-.128Q253.075,144.552,253.075,144.375Zm.835.906v4.067h-.835v-4.067Z" transform="translate(-200.173 -143.934)" fill="url(#linear-gradient-9)"/>
        <path id="Path_35653" data-name="Path 35653" d="M268.4,148.52l.147.008a1.134,1.134,0,0,1,.3.068,1.643,1.643,0,0,1,.363.189,1.353,1.353,0,0,1,.356.369,2.133,2.133,0,0,1,.27.606,3.269,3.269,0,0,1,.106.9v2.029H269.1v-2.029a2.466,2.466,0,0,0-.027-.361,1.13,1.13,0,0,0-.1-.337.688.688,0,0,0-.212-.252.7.7,0,0,0-.725,0,.683.683,0,0,0-.212.252,1.121,1.121,0,0,0-.1.337,2.432,2.432,0,0,0-.027.361v2.029h-.835v-2.029a3.276,3.276,0,0,1,.106-.9,2.124,2.124,0,0,1,.27-.606,1.352,1.352,0,0,1,.356-.369,1.644,1.644,0,0,1,.363-.189,1.139,1.139,0,0,1,.294-.068Z" transform="translate(-210.218 -147.277)" fill="url(#linear-gradient-10)"/>
        <path id="Path_35654" data-name="Path 35654" d="M290.354,148.52l.147.008a1.14,1.14,0,0,1,.3.068,1.641,1.641,0,0,1,.363.189,1.356,1.356,0,0,1,.356.369,2.133,2.133,0,0,1,.27.606,3.281,3.281,0,0,1,.106.9v2.029h-.835v-2.029a2.47,2.47,0,0,0-.027-.361,1.143,1.143,0,0,0-.1-.337.686.686,0,0,0-.212-.252.7.7,0,0,0-.726,0,.682.682,0,0,0-.212.252,1.122,1.122,0,0,0-.1.337,2.469,2.469,0,0,0-.027.361v2.029h-.835v-2.029a3.267,3.267,0,0,1,.106-.9,2.124,2.124,0,0,1,.27-.606,1.347,1.347,0,0,1,.356-.369,1.643,1.643,0,0,1,.363-.189,1.135,1.135,0,0,1,.294-.068Z" transform="translate(-226.223 -147.277)" fill="url(#linear-gradient-11)"/>
        <path id="Path_35655" data-name="Path 35655" d="M310.723,150.662a3.449,3.449,0,0,1,.068-.73,2.369,2.369,0,0,1,.182-.541,1.5,1.5,0,0,1,.26-.381,1.635,1.635,0,0,1,.3-.249,1.486,1.486,0,0,1,1.622,0,1.672,1.672,0,0,1,.3.249,1.494,1.494,0,0,1,.26.381,2.48,2.48,0,0,1,.185.541,3.745,3.745,0,0,1,0,1.46,2.4,2.4,0,0,1-.185.537,1.442,1.442,0,0,1-.26.373,1.779,1.779,0,0,1-.3.245,1.577,1.577,0,0,1-1.622,0,1.738,1.738,0,0,1-.3-.245,1.444,1.444,0,0,1-.26-.373,2.3,2.3,0,0,1-.182-.537A3.452,3.452,0,0,1,310.723,150.662Zm1.622-1.2a.642.642,0,0,0-.407.12.789.789,0,0,0-.236.3,1.355,1.355,0,0,0-.109.389,2.721,2.721,0,0,0,0,.77,1.359,1.359,0,0,0,.109.389.786.786,0,0,0,.236.3.749.749,0,0,0,.814,0,.789.789,0,0,0,.236-.3,1.375,1.375,0,0,0,.109-.389,2.745,2.745,0,0,0,0-.77,1.371,1.371,0,0,0-.109-.389.792.792,0,0,0-.236-.3A.643.643,0,0,0,312.345,149.466Z" transform="translate(-242.191 -147.277)" fill="url(#linear-gradient-12)"/>
        <path id="Path_35656" data-name="Path 35656" d="M334.673,152.972h-.561l-1.129-4.067h.842l.848,3.04.849-3.04h.842l-1.129,4.067Z" transform="translate(-258.416 -147.557)" fill="url(#linear-gradient-13)"/>
        <path id="Path_35657" data-name="Path 35657" d="M359.048,152.691h-.814v-.561l.151-.233a1.324,1.324,0,0,1-.294.514,1.287,1.287,0,0,1-.349.256,1.236,1.236,0,0,1-.41.1,1.388,1.388,0,0,1-.753-.224,1.5,1.5,0,0,1-.277-.245,1.529,1.529,0,0,1-.239-.373,2.4,2.4,0,0,1-.171-.537,3.6,3.6,0,0,1-.065-.73,3.454,3.454,0,0,1,.068-.73,2.361,2.361,0,0,1,.181-.541,1.494,1.494,0,0,1,.26-.381,1.626,1.626,0,0,1,.3-.249,1.6,1.6,0,0,1,.814-.241,1.644,1.644,0,0,1,.732.149,1.3,1.3,0,0,1,.5.425,1.859,1.859,0,0,1,.284.674,4.139,4.139,0,0,1,.089.9Zm-1.6-3.224a.642.642,0,0,0-.407.12.794.794,0,0,0-.236.3,1.363,1.363,0,0,0-.11.389,2.724,2.724,0,0,0,0,.77,1.368,1.368,0,0,0,.11.389.791.791,0,0,0,.236.3.749.749,0,0,0,.814,0,.824.824,0,0,0,.239-.3,1.3,1.3,0,0,0,.113-.389,2.939,2.939,0,0,0,.027-.385,3.836,3.836,0,0,0-.024-.429,1.26,1.26,0,0,0-.1-.385.646.646,0,0,0-.236-.277A.759.759,0,0,0,357.447,149.466Z" transform="translate(-275.065 -147.277)" fill="url(#linear-gradient-14)"/>
        <path id="Path_35658" data-name="Path 35658" d="M379.274,146.927v1.789a.49.49,0,0,0,.075.176.511.511,0,0,0,.134.12.4.4,0,0,0,.222.056h.52v.971h-.835a1.062,1.062,0,0,1-.479-.176,1.162,1.162,0,0,1-.325-.357,1.235,1.235,0,0,1-.147-.654v-3.97h.835v1.091h.787v.955Z" transform="translate(-291.548 -144.624)" fill="url(#linear-gradient-15)"/>
        <path id="Path_35659" data-name="Path 35659" d="M395.6,144.375c0-.118,0-.206,0-.265a.2.2,0,0,1,.041-.128.174.174,0,0,1,.123-.044c.057,0,.14,0,.25,0s.193,0,.25,0a.175.175,0,0,1,.123.044.2.2,0,0,1,.041.128c0,.059,0,.147,0,.265s0,.206,0,.265a.2.2,0,0,1-.041.128.175.175,0,0,1-.123.044q-.086,0-.25,0c-.11,0-.193,0-.25,0a.174.174,0,0,1-.123-.044.194.194,0,0,1-.041-.128C395.6,144.581,395.6,144.493,395.6,144.375Zm.835.906v4.067H395.6v-4.067Z" transform="translate(-304.059 -143.934)" fill="url(#linear-gradient-16)"/>
        <path id="Path_35660" data-name="Path 35660" d="M409.333,150.662a3.455,3.455,0,0,1,.068-.73,2.358,2.358,0,0,1,.182-.541,1.5,1.5,0,0,1,.26-.381,1.656,1.656,0,0,1,.3-.249,1.486,1.486,0,0,1,1.622,0,1.656,1.656,0,0,1,.3.249,1.5,1.5,0,0,1,.26.381,2.477,2.477,0,0,1,.185.541,3.748,3.748,0,0,1,0,1.46,2.4,2.4,0,0,1-.185.537,1.447,1.447,0,0,1-.26.373,1.761,1.761,0,0,1-.3.245,1.577,1.577,0,0,1-1.622,0,1.761,1.761,0,0,1-.3-.245,1.443,1.443,0,0,1-.26-.373,2.285,2.285,0,0,1-.182-.537A3.458,3.458,0,0,1,409.333,150.662Zm1.622-1.2a.641.641,0,0,0-.407.12.787.787,0,0,0-.236.3,1.35,1.35,0,0,0-.11.389,2.724,2.724,0,0,0,0,.77,1.354,1.354,0,0,0,.11.389.784.784,0,0,0,.236.3.748.748,0,0,0,.814,0,.79.79,0,0,0,.236-.3,1.367,1.367,0,0,0,.109-.389,2.715,2.715,0,0,0,0-.77,1.363,1.363,0,0,0-.109-.389.793.793,0,0,0-.236-.3A.642.642,0,0,0,410.955,149.466Z" transform="translate(-314.066 -147.277)" fill="url(#linear-gradient-17)"/>
        <path id="Path_35661" data-name="Path 35661" d="M433.386,148.52l.147.008a1.138,1.138,0,0,1,.3.068,1.649,1.649,0,0,1,.363.189,1.35,1.35,0,0,1,.356.369,2.134,2.134,0,0,1,.27.606,3.279,3.279,0,0,1,.106.9v2.029h-.835v-2.029a2.508,2.508,0,0,0-.027-.361,1.137,1.137,0,0,0-.1-.337.685.685,0,0,0-.212-.252.7.7,0,0,0-.725,0,.682.682,0,0,0-.212.252,1.129,1.129,0,0,0-.1.337,2.423,2.423,0,0,0-.027.361v2.029h-.835v-2.029a3.278,3.278,0,0,1,.106-.9,2.114,2.114,0,0,1,.271-.606,1.347,1.347,0,0,1,.355-.369,1.643,1.643,0,0,1,.363-.189,1.139,1.139,0,0,1,.294-.068Z" transform="translate(-330.476 -147.277)" fill="url(#linear-gradient-18)"/>
      </g>
    </g>
    <g id="Group_30627" data-name="Group 30627" transform="translate(-43.13 0.957)">
      <path id="Path_35662" data-name="Path 35662" d="M174.36,86.454a17.508,17.508,0,0,1,2.915.271,3.689,3.689,0,0,1,2.788,4.738c-.991,4.425-8.576,4.163-10.427.217a4.825,4.825,0,0,1-.394-2.058h3.005a2.562,2.562,0,0,0,.073.556c.41,1.793,3.041,2.183,4.316,1.581a1.432,1.432,0,0,0,.865-1.38c-.176-1.435-2.156-1.53-3.193-1.6-1.564-.1-3.091,0-4.226-1.4a3.78,3.78,0,0,1-.33-4.079,3.893,3.893,0,0,1,1.17-1.333,5.243,5.243,0,0,1,1.663-.777,7.361,7.361,0,0,1,1.97-.259,10.912,10.912,0,0,1,1.453.13,5.4,5.4,0,0,1,1.786.6,4.018,4.018,0,0,1,2.094,3.837c-.909,0-1.817,0-2.725,0a.263.263,0,0,1-.181-.044.317.317,0,0,1-.075-.176,2.134,2.134,0,0,0-1.191-1.433,3.082,3.082,0,0,0-1.842-.188,2.274,2.274,0,0,0-1.26.595A1.3,1.3,0,0,0,172.3,85.6c.259.621,1.014.784,1.658.831C174.091,86.439,174.226,86.447,174.36,86.454Z" transform="translate(-169.242 -80.936)" fill="#303030"/>
      <g id="Group_30458" data-name="Group 30458" transform="translate(0)" clip-path="url(#clip-path)">
        <path id="Path_35663" data-name="Path 35663" d="M98.757-11.794l27.788-14.452c13.151-6.84,18.537-23.59,12.03-37.413h0c-14.18-30.12-48.907-42.455-77.565-27.552h0C47.859-84.371,42.473-67.621,48.98-53.8L62.73-24.591C69.317-10.6,85.446-4.872,98.757-11.794Z" transform="translate(-79.573 49.149)" fill="#303030"/>
      </g>
    </g>
    <path id="Path_35765" data-name="Path 35765" d="M259.9,107.943a2.216,2.216,0,1,1-2.2-2.232A2.216,2.216,0,0,1,259.9,107.943Z" transform="translate(-275.218 -98.037)" fill="#be1c54"/>
    <path id="Path_35766" data-name="Path 35766" d="M225.268,81.284a6.42,6.42,0,0,0-.757.348c-4,2.164-4.594,7.643-1.62,10.948a6.925,6.925,0,0,0,8.163,1.384l-1.592-2.345a4.271,4.271,0,0,1-5.211-2.082,4.042,4.042,0,0,1,2.123-5.416,3.967,3.967,0,0,1,5.1,2.3l2.784-1.086a10.412,10.412,0,0,0-.944-1.7A7.064,7.064,0,0,0,225.268,81.284Z" transform="translate(-250.111 -79.913)" fill="#303030"/>
    <path id="Path_35760" data-name="Path 35760" d="M63.635,80.936q.08,0,.576.027a5.09,5.09,0,0,1,1.166.228,6.86,6.86,0,0,1,1.421.63,4.955,4.955,0,0,1,1.394,1.233,6.642,6.642,0,0,1,1.059,2.024,9.443,9.443,0,0,1,.415,3.015v6.781H66.4V88.093a7.055,7.055,0,0,0-.107-1.206,3.382,3.382,0,0,0-.4-1.126,2.436,2.436,0,0,0-.831-.845,3.179,3.179,0,0,0-2.841,0,2.425,2.425,0,0,0-.831.845,3.378,3.378,0,0,0-.4,1.126,7.029,7.029,0,0,0-.107,1.206v6.781H57.6V88.093a9.443,9.443,0,0,1,.416-3.015,6.642,6.642,0,0,1,1.059-2.024,4.946,4.946,0,0,1,1.394-1.233,6.831,6.831,0,0,1,1.42-.63,5.078,5.078,0,0,1,1.153-.228Q63.527,80.936,63.635,80.936Z" transform="translate(-131 -79.979)" fill="#303030"/>
  </g>
</svg>
