<svg xmlns="http://www.w3.org/2000/svg" width="19.843" height="20" viewBox="0 0 19.843 20">
  <g id="Group_30657" data-name="Group 30657" transform="translate(-66.52 -40.807)">
    <path id="Path_35604" data-name="Path 35604" d="M261.852,108.927a3.194,3.194,0,1,1-3.171-3.216A3.193,3.193,0,0,1,261.852,108.927Z" transform="translate(-175.489 -55.191)" fill="#be1c54"/>
    <path id="Path_35605" data-name="Path 35605" d="M227.141,81.478a9.253,9.253,0,0,0-1.091.5c-5.769,3.118-6.619,11.012-2.334,15.774a9.978,9.978,0,0,0,11.762,1.995l-2.294-3.379a6.154,6.154,0,0,1-7.508-3,5.824,5.824,0,0,1,3.059-7.8,5.716,5.716,0,0,1,7.347,3.318l4.011-1.565a15.007,15.007,0,0,0-1.36-2.446A10.178,10.178,0,0,0,227.141,81.478Z" transform="translate(-154.498 -40.039)" fill="#303030"/>
  </g>
</svg>
