<svg xmlns="http://www.w3.org/2000/svg" width="20" height="18.571" viewBox="0 0 20 18.571">
  <g id="view-list" transform="translate(-12 -18)">
    <g id="Group_30506" data-name="Group 30506" transform="translate(12 18)">
      <path id="Path_35697" data-name="Path 35697" d="M14.857,22.286H29.143A2.857,2.857,0,0,1,32,25.143v4.286a2.857,2.857,0,0,1-2.857,2.857H14.857A2.857,2.857,0,0,1,12,29.429V25.143A2.857,2.857,0,0,1,14.857,22.286Zm0,1.429a1.429,1.429,0,0,0-1.429,1.429v4.286a1.429,1.429,0,0,0,1.429,1.429H29.143a1.429,1.429,0,0,0,1.429-1.429V25.143a1.429,1.429,0,0,0-1.429-1.429Zm-2.857-5A.714.714,0,0,1,12.714,18H31.286a.714.714,0,1,1,0,1.429H12.714A.714.714,0,0,1,12,18.714Zm0,17.143a.714.714,0,0,1,.714-.714H31.286a.714.714,0,1,1,0,1.429H12.714A.714.714,0,0,1,12,35.857Z" transform="translate(-12 -18)" fill="#303030"/>
    </g>
  </g>
</svg>
